# xmcd
#
# Track frame offsets:
#	150
#	10057
#	17220
#	30572
#	34865
#	46957
#	57035
#	74292
#	82592
#	101870
#	105107
#	120135
#	128502
#	140117
#	147040
#	160927
#	171015
#	180500
#	187145
#	200662
#	209815
#	224502
#	242607
#	255735
#	271150
#	285612
#	300697
#	319200
#	332135
#
# Disc length: 4625 seconds
#
# Revision: 0
# Processed by: cddbd v1.5.2PL0 Copyright (c) Steve Scherf et al.
# Submitted via: audiograbber 1.83.01
#
DISCID=9d120f1d
DTITLE=Frank Sinatra - Frankie Goes To Hollywood (1940-1954) CD2
DYEAR=2004
DGENRE=
TTITLE0=If You Are But A Dream
TTITLE1=All Or Nothing At All
TTITLE2=Ol' Man River
TTITLE3=Whose Baby Are You
TTITLE4=The Brooklyn Bridge
TTITLE5=Invention # 1
TTITLE6=I Believe
TTITLE7=Time After Time
TTITLE8=The Song's Gotta Come From The Heart
TTITLE9=Otchi-Tchor-Ni-Ya
TTITLE10=La Ci Darem La Mano
TTITLE11=It's The Same Old Dream
TTITLE12=It's The Same Old Dream
TTITLE13=Ever Homeward
TTITLE14=If I Steal A Kiss
TTITLE15=Senorita
TTITLE16=Siesta
TTITLE17=What's Wrong With Me
TTITLE18=We're On Our Way
TTITLE19=Take Me out to the Ball Game
TTITLE20=Yes, Indeedy
TTITLE21=O'Brien To Ryan To Goldberg
TTITLE22=The Right Girl for Me
TTITLE23=Boys And Girls Like You And Me
TTITLE24=It`s Fate, Baby It`s Fate
TTITLE25=Strictly USA
TTITLE26=New York, New York
TTITLE27=Come Up to My Place
TTITLE28=You`re Awful
EXTD=
EXTT0=
EXTT1=
EXTT2=
EXTT3=
EXTT4=
EXTT5=
EXTT6=
EXTT7=
EXTT8=
EXTT9=
EXTT10=
EXTT11=
EXTT12=
EXTT13=
EXTT14=
EXTT15=
EXTT16=
EXTT17=
EXTT18=
EXTT19=
EXTT20=
EXTT21=
EXTT22=
EXTT23=
EXTT24=
EXTT25=
EXTT26=
EXTT27=
EXTT28=
PLAYORDER=
